<svg xmlns="http://www.w3.org/2000/svg" aria-hidden="true" style="position:absolute;width:0;height:0;overflow:hidden">
  <defs>
    <symbol id="icon-check" viewBox="0 0 31 32">
      <path d="M26.045 10.44 12.477 24.008a.64.64 0 0 1-.908 0L4.67 17.109a.64.64 0 0 1 0-.908l.896-.896a.64.64 0 0 1 .908 0l5.542 5.542L24.24 8.623a.654.654 0 0 1 .909 0l.896.909a.64.64 0 0 1 0 .908z"/>
    </symbol>
    <symbol id="icon-close" viewBox="0 0 32 32">
      <path d="m21.589 8.459-5.657 5.656-5.656-5.656-1.885 1.885L14.047 16l-5.656 5.656 1.885 1.885 5.656-5.656 5.657 5.656 1.885-1.885L17.818 16l5.656-5.656-1.885-1.885z"/>
    </symbol>
    <symbol id="icon-facebook" viewBox="0 0 32 32">
      <path d="M29.333 16.405C29.333 8.996 23.364 2.99 16 2.99S2.667 8.996 2.667 16.405c0 6.696 4.876 12.245 11.25 13.252v-9.374h-3.385v-3.878h3.385V13.45c0-3.362 1.991-5.219 5.036-5.219 1.459 0 2.985.262 2.985.262v3.301h-1.681c-1.656 0-2.173 1.034-2.173 2.095v2.516h3.698l-.591 3.878h-3.107v9.374c6.374-1.006 11.25-6.556 11.25-13.252z"/>
    </symbol>
    <symbol id="icon-instagram" viewBox="0 0 32 32">
      <path d="M15.998 6.161c3.206 0 3.585.014 4.846.071 1.172.052 1.804.248 2.226.412.558.216.961.478 1.378.895.422.422.679.82.9 1.378.164.422.361 1.059.412 2.226.056 1.266.071 1.645.071 4.847s-.014 3.585-.071 4.847c-.052 1.172-.248 1.804-.412 2.227a3.702 3.702 0 0 1-.895 1.377c-.422.422-.82.679-1.378.9-.422.164-1.06.361-2.226.412-1.266.056-1.645.071-4.847.071s-3.585-.014-4.847-.071c-1.172-.052-1.804-.248-2.226-.412a3.714 3.714 0 0 1-1.378-.895 3.767 3.767 0 0 1-.9-1.378c-.164-.422-.361-1.06-.412-2.226-.056-1.266-.071-1.645-.071-4.847s.014-3.585.071-4.847c.052-1.172.248-1.804.412-2.226.216-.558.478-.961.895-1.378.422-.422.82-.679 1.378-.9.422-.164 1.059-.361 2.226-.412 1.261-.056 1.641-.071 4.847-.071h.001zm0-2.16c-3.258 0-3.665.014-4.945.071-1.275.056-2.151.262-2.91.558a5.847 5.847 0 0 0-2.127 1.387A5.883 5.883 0 0 0 4.629 8.14c-.295.764-.502 1.636-.558 2.91C4.015 12.335 4 12.742 4 15.999s.014 3.665.071 4.945c.056 1.275.262 2.151.558 2.91a5.86 5.86 0 0 0 1.387 2.127 5.876 5.876 0 0 0 2.123 1.383c.764.295 1.636.502 2.91.558 1.279.056 1.687.071 4.945.071s3.666-.014 4.945-.071c1.275-.056 2.151-.262 2.91-.558.787-.305 1.458-.717 2.123-1.383s1.078-1.336 1.383-2.123c.295-.764.502-1.635.558-2.91.056-1.279.071-1.687.071-4.945s-.014-3.665-.071-4.945c-.056-1.275-.262-2.151-.558-2.91a5.622 5.622 0 0 0-1.373-2.133 5.876 5.876 0 0 0-2.123-1.383c-.764-.295-1.635-.502-2.91-.558-1.284-.061-1.692-.075-4.949-.075L15.999 4z"/>
      <path d="M15.997 9.836a6.164 6.164 0 1 0 6.163 6.163 6.164 6.164 0 0 0-6.163-6.163zm0 10.161a3.998 3.998 0 1 1 0-7.996 3.998 3.998 0 0 1 0 7.996zM23.842 9.592a1.439 1.439 0 1 1-2.877 0 1.439 1.439 0 0 1 2.877 0z"/>
    </symbol>
    <symbol id="icon-linkedIn" viewBox="0 0 32 32">
      <path d="M25.75 4H6.25A2.257 2.257 0 0 0 4 6.25v19.5A2.257 2.257 0 0 0 6.25 28h19.5A2.257 2.257 0 0 0 28 25.75V6.25A2.257 2.257 0 0 0 25.75 4zM13 23.5h-3V13h3v10.5zm-1.5-12a1.5 1.5 0 1 1-.001-2.999A1.5 1.5 0 0 1 11.5 11.5zm12 12h-3v-6a1.5 1.5 0 1 0-3 0v6h-3V13h3v1.861c.619-.848 1.565-1.861 2.625-1.861 1.866 0 3.375 1.679 3.375 3.75v6.75z"/>
    </symbol>
    <symbol id="icon-burgermenu" viewBox="0 0 32 32">
      <path d="M5.333 8h21.333v2.667H5.333V8zm0 6.667h21.333v2.667H5.333v-2.667zm0 6.666h21.333V24H5.333v-2.667z"/>
    </symbol>
    <symbol id="icon-xtwit" viewBox="0 0 32 32">
      <path d="M22.901 5.657h3.68l-8.04 9.037L28 26.991h-7.406l-5.801-7.458-6.637 7.458H4.474l8.6-9.666L4 5.657h7.594l5.243 6.817 6.064-6.817zM21.61 24.824h2.039L10.486 7.709H8.298L21.61 24.824z"/>
    </symbol>
    <symbol id="icon-youtube" viewBox="0 0 32 32">
      <path d="M28.791 9.604a3.345 3.345 0 0 0-2.35-2.354C24.353 6.677 16 6.667 16 6.667s-8.352-.009-10.441.539a3.416 3.416 0 0 0-2.354 2.371c-.551 2.088-.556 6.419-.556 6.419s-.005 4.352.541 6.419a3.341 3.341 0 0 0 2.351 2.353c2.109.573 10.44.583 10.44.583s8.353.009 10.441-.537a3.356 3.356 0 0 0 2.356-2.35c.552-2.087.556-6.416.556-6.416s.027-4.353-.543-6.441zM13.328 20.007l.007-8 6.943 4.007-6.949 3.993z"/>
    </symbol>
<symbol id="icon-company-logo" viewBox="0 0 75 32">
<path d="M13.131 2.542c0.331 0.165 0.705 0.638 0.955 0.918 2.149 2.4 3.275 5.457 3.076 8.674-0.193 3.113-1.731 5.879-4.039 7.922-0.437-0.299-0.837-0.724-1.187-1.12-1.96-2.217-3.035-5.333-2.848-8.288 0.193-3.048 1.751-6.097 4.043-8.106z"></path>
<path d="M22.273 6.9c0.007 0.011 0.014 0.021 0.020 0.033 0.122 0.249 0.157 0.644 0.188 0.92 0.162 1.437 0.028 2.878-0.477 4.239-1.263 3.4-4.181 5.902-7.409 7.385-0.038 0-0.013 0.003-0.071-0.031 0.197-0.323 0.472-0.611 0.7-0.914 0.348-0.473 0.663-0.97 0.944-1.485 0.988-1.819 1.461-3.82 1.46-5.883-0.001-0.585-0.014-1.171-0.184-1.737 0.303-0.336 0.673-0.619 1.033-0.891 1.16-0.878 2.329-1.489 3.796-1.635zM3.948 6.915c0.175 0.007 0.35 0.029 0.523 0.055 1.325 0.201 2.485 0.907 3.521 1.725 0.289 0.228 0.605 0.466 0.823 0.765-0.551 2.829 0.18 5.795 1.642 8.242 0.233 0.389 0.487 0.766 0.757 1.13 0.129 0.173 0.283 0.331 0.398 0.513l-0.041 0.053c-2.412-1.031-4.671-2.856-6.125-5.037-1.525-2.289-2.029-4.755-1.498-7.447z"></path>
<path d="M24.633 13.227c0.385-0.046 1.247-0.095 1.569 0.111 0.016 0.049 0.021 0.053 0.023 0.113 0.007 0.225-0.141 0.563-0.217 0.773-0.538 1.5-1.411 2.767-2.534 3.758l-0.010 0.008c-2.263 2.001-5.197 2.719-8.159 2.528-0.56-0.058-1.137-0.097-1.675-0.269 2.482-0.763 4.843-2.323 6.554-4.271 0.42-0.479 0.729-1.035 1.138-1.517 0.777-0.914 2.185-1.155 3.311-1.235zM0.921 13.303c1.157-0.137 2.727 0.053 3.679 0.774 0.567 0.428 0.907 1.223 1.376 1.765 1.444 1.666 3.235 2.991 5.265 3.87l0.095 0.037c0.439 0.188 0.891 0.385 1.355 0.499l-0.928 0.155c-2.703 0.389-5.503-0.094-7.815-1.597-1.575-1.025-2.683-2.429-3.335-4.18-0.095-0.257-0.239-0.536-0.288-0.803-0.028-0.157-0.003-0.26 0.088-0.392 0.145-0.107 0.335-0.106 0.509-0.127zM48.117 10.967c0.9-0.007 1.883-0.088 2.773 0.042 0.573 0.083 1.153 0.289 1.502 0.779 0.256 0.361 0.339 0.868 0.26 1.3-0.097 0.528-0.431 0.833-0.855 1.118 0.102 0.043 0.201 0.089 0.299 0.141 0.374 0.203 0.639 0.553 0.748 0.963 0.15 0.56 0.031 1.137-0.248 1.633-0.066 0.097-0.138 0.181-0.219 0.256l-0.001 0.001c-0.855 0.811-2.729 0.654-3.833 0.643-0.212-0.001-0.491 0.017-0.65-0.144-0.035-0.065-0.057-0.142-0.060-0.224l-0-0.001c-0.073-1.187-0.007-2.418-0.007-3.608-0.001-0.843-0.085-1.941 0.025-2.755 0.085-0.107 0.139-0.106 0.267-0.145zM51.133 15.14c-0.477-0.311-1.281-0.221-1.835-0.221l0.003 1.537c0.613 0.005 1.331 0.1 1.875-0.229 0.128-0.189 0.256-0.47 0.219-0.705-0.027-0.171-0.121-0.289-0.263-0.381zM50.907 12.407c-0.455-0.275-1.094-0.205-1.606-0.202v1.475c0.549 0.005 1.204 0.086 1.684-0.225 0.129-0.185 0.253-0.45 0.205-0.683-0.035-0.171-0.137-0.278-0.283-0.366zM39.72 12.565c0.137-0.011 0.275-0.004 0.411 0.022 0.412 0.083 0.613 0.385 0.833 0.709 0.013-0.113 0.021-0.236 0.047-0.346 0.024-0.108 0.096-0.195 0.191-0.24l0.002-0.001c0.167-0.089 0.525-0.095 0.699-0.030 0.127 0.047 0.269 0.157 0.313 0.291 0.129 0.393 0.079 4.246 0.004 4.773-0.051 0.372-0.169 0.708-0.34 1.008l0.007-0.014c-0.282 0.491-0.763 0.812-1.303 0.958-0.761 0.205-1.627 0.14-2.307-0.269-0.303-0.183-0.445-0.418-0.525-0.756 0.026-0.122 0.056-0.241 0.161-0.32 0.34-0.257 1.075 0.175 1.453 0.245 0.325 0.060 0.675 0.027 0.945-0.177 0.445-0.336 0.519-0.957 0.595-1.469-0.299 0.319-0.581 0.575-1.021 0.683-0.13 0.034-0.279 0.053-0.433 0.053-0.362 0-0.7-0.107-0.982-0.292l0.007 0.004c-0.54-0.358-0.841-0.971-0.952-1.595-0.135-0.759-0.017-1.667 0.443-2.302 0.439-0.605 1.042-0.827 1.751-0.936zM39.8 13.727c-0.355 0.133-0.551 0.298-0.703 0.651-0.187 0.435-0.193 1.065-0.010 1.501 0.097 0.229 0.291 0.471 0.535 0.553 0.161 0.055 0.356 0.031 0.522 0.019 0.292-0.105 0.459-0.227 0.597-0.511 0.213-0.436 0.22-1.051 0.057-1.507-0.095-0.264-0.281-0.524-0.547-0.638-0.114-0.046-0.246-0.072-0.384-0.072-0.024 0-0.047 0.001-0.070 0.002l0.003-0zM69.203 12.607c0.349-0.047 0.692-0.031 1.021 0.105 0.455 0.189 0.691 0.531 0.871 0.969 0.092-0.231 0.194-0.465 0.357-0.656 0.258-0.303 0.596-0.424 0.987-0.439 0.451-0.017 0.913 0.087 1.244 0.41 0.217 0.213 0.351 0.499 0.423 0.791 0.193 0.779 0.085 2.451 0.088 3.331 0 0.135 0.017 0.56-0.088 0.64-0.179 0.135-0.814 0.105-1.038 0.073-0.13-0.018-0.211-0.088-0.264-0.207-0.083-0.181-0.039-0.507-0.036-0.707 0.009-0.653 0.169-2.456-0.217-2.932-0.085-0.107-0.211-0.177-0.354-0.188l-0.002-0c-0.207-0.015-0.472 0.057-0.623 0.205-0.535 0.525-0.357 2.389-0.353 3.122 0.001 0.149 0.007 0.31-0.011 0.457-0.009 0.065-0.031 0.14-0.091 0.173-0.228 0.131-0.783 0.112-1.035 0.053-0.131-0.031-0.187-0.075-0.234-0.203-0.077-0.211-0.034-0.523-0.030-0.747 0.011-0.653 0.167-2.279-0.166-2.769-0.096-0.141-0.246-0.239-0.42-0.265l-0.003-0c-0.199-0.033-0.406-0.007-0.568 0.121-0.651 0.513-0.473 2.313-0.469 3.058 0.001 0.179 0.037 0.435-0.005 0.601-0.017 0.070-0.037 0.112-0.097 0.152-0.209 0.137-0.777 0.107-1.027 0.058-0.1-0.020-0.18-0.088-0.217-0.178l-0.001-0.002c-0.064-0.136-0.083-4.048-0.059-4.435 0.007-0.108 0.029-0.223 0.078-0.32 0.063-0.119 0.169-0.208 0.298-0.247l0.004-0.001c0.309-0.1 0.696 0.011 0.969 0.163 0.066 0.244 0.019 0.564 0.008 0.819 0.033-0.065 0.065-0.13 0.098-0.194 0.242-0.467 0.469-0.657 0.962-0.813zM63.575 12.627c0.023-0.001 0.051-0.001 0.078-0.001 1.454 0 2.633 1.179 2.633 2.633 0 1.443-1.161 2.615-2.6 2.632h-0.002c-0.009 0-0.020 0-0.031 0-1.454 0-2.633-1.179-2.633-2.633 0-1.427 1.135-2.588 2.551-2.631l0.004-0zM63.875 13.793c-0.153-0.045-0.32-0.035-0.477-0.021-0.387 0.171-0.597 0.369-0.747 0.773-0.18 0.483-0.151 1.159 0.079 1.62 0.124 0.249 0.316 0.451 0.583 0.54 0.183 0.061 0.355 0.071 0.543 0.027 0.371-0.155 0.593-0.353 0.745-0.733 0.191-0.477 0.189-1.115-0.031-1.582-0.137-0.292-0.381-0.532-0.695-0.625zM34.405 12.634c0.048-0.003 0.104-0.005 0.16-0.005 1.453 0 2.631 1.178 2.631 2.631 0 1.426-1.135 2.588-2.551 2.63l-0.004 0c-0.023 0.001-0.049 0.001-0.076 0.001-1.453 0-2.631-1.178-2.631-2.631 0-1.397 1.088-2.539 2.463-2.626l0.008-0zM34.815 13.807c-0.168-0.058-0.341-0.057-0.515-0.035-0.389 0.192-0.61 0.392-0.758 0.817-0.168 0.48-0.143 1.167 0.098 1.618 0.132 0.247 0.332 0.427 0.601 0.509 0.165 0.051 0.353 0.055 0.521 0.015 0.37-0.154 0.587-0.353 0.737-0.733 0.189-0.481 0.173-1.117-0.045-1.587-0.128-0.276-0.347-0.503-0.638-0.603z"></path>
<path d="M57.677 12.663c0.126-0.021 0.271-0.034 0.419-0.034 1.453 0 2.63 1.178 2.63 2.63 0 0.349-0.068 0.681-0.191 0.986l0.006-0.018c-0.397 0.98-1.341 1.659-2.443 1.659-1.452 0-2.629-1.177-2.629-2.629 0-1.303 0.948-2.385 2.193-2.593l0.015-0.002zM57.893 13.769c-0.39 0.165-0.615 0.353-0.773 0.757-0.185 0.473-0.167 1.129 0.053 1.589 0.132 0.277 0.357 0.506 0.653 0.6 0.149 0.048 0.317 0.047 0.471 0.029 0.389-0.165 0.615-0.348 0.776-0.752 0.187-0.469 0.184-1.117-0.033-1.576-0.13-0.272-0.349-0.503-0.638-0.605-0.163-0.057-0.339-0.056-0.509-0.041zM44.537 12.609c0.11-0.016 0.238-0.024 0.367-0.024 0.214 0 0.422 0.024 0.622 0.070l-0.019-0.004c0.492 0.115 0.905 0.401 1.156 0.843 0.134 0.237 0.212 0.496 0.249 0.765 0.057 0.414 0.090 3.039-0.005 3.4-0.079 0.101-0.159 0.139-0.282 0.165-0.21 0.045-0.671 0.071-0.841-0.087-0.149-0.137-0.119-0.423-0.121-0.609-0.247 0.365-0.495 0.658-0.944 0.77-0.501 0.125-0.965-0.021-1.397-0.27-0.184-0.169-0.324-0.344-0.403-0.585-0.133-0.405-0.090-0.953 0.118-1.326 0.503-0.907 1.69-0.851 2.557-1.107l0.055-0.017c-0.035-0.109-0.070-0.22-0.115-0.325-0.491-1.132-1.715 0.105-2.307-0.207-0.118-0.068-0.204-0.181-0.235-0.315l-0.001-0.003c-0.040-0.172 0.006-0.283 0.1-0.427 0.317-0.485 0.913-0.607 1.445-0.708zM45.592 15.633c-0.361 0.099-1.037 0.209-1.253 0.536-0.037 0.060-0.060 0.134-0.060 0.212 0 0.055 0.011 0.107 0.031 0.155l-0.001-0.003c0.032 0.083 0.095 0.155 0.15 0.224 0.373 0.025 0.607-0.003 0.891-0.261 0.173-0.157 0.331-0.411 0.323-0.655-0.003-0.060-0.019-0.122-0.033-0.181l-0.048-0.028zM29.821 13.583c0.129-0.411 1.135-2.375 1.455-2.559 0.167-0.096 1.055-0.111 1.233-0.029 0.114 0.053 0.127 0.083 0.178 0.19-0.091 0.509-1.215 2.215-1.547 2.772l-0.585 0.971c0.003 0.584 0.105 2.365-0.099 2.788-0.058 0.050-0.129 0.087-0.207 0.105l-0.003 0.001c-0.274 0.065-0.82 0.045-1.061-0.107-0.187-0.247-0.089-2.291-0.089-2.744-0.299-0.477-2.225-3.553-2.173-3.847 0.063-0.092 0.104-0.115 0.207-0.155 0.325-0.009 0.987-0.095 1.255 0.068 0.349 0.211 1.307 2.115 1.436 2.547zM53.677 10.968c0.341-0.009 0.899-0.094 1.193 0.082 0.083 0.561 0.050 1.155 0.051 1.722l0.003 2.622c0 0.685 0.075 1.509-0.013 2.181-0.017 0.134-0.1 0.178-0.197 0.255-0.355 0.011-0.901 0.099-1.193-0.131-0.069-0.263-0.112-6.316-0.046-6.555 0.032-0.113 0.107-0.127 0.202-0.175zM13.271 20.431c0.471 0.167 0.943 0.301 1.437 0.381 0.849 0.137 1.837 0.097 2.6 0.54 0.564 0.327 1.141 1.092 1.3 1.727 0.029 0.117 0.021 0.127-0.039 0.223-0.59 0.213-1.163 0.162-1.75-0.030-1.414-0.463-2.856-1.493-3.548-2.841zM13.006 20.433c0.029-0.002 0.058 0.013 0.087 0.022-0.001 0.013-0.001 0.027-0.004 0.040-0.073 0.301-1.237 1.529-1.506 1.741-0.929 0.733-2.308 1.316-3.507 1.173-0.032-0.007-0.077-0.015-0.105-0.029-0.065-0.029-0.105-0.053-0.123-0.123-0.045-0.187 0.061-0.405 0.147-0.567 0.274-0.525 0.704-1.141 1.243-1.425 0.664-0.349 1.644-0.347 2.382-0.479 0.473-0.084 0.928-0.212 1.387-0.352z"></path>
</symbol>
  </defs>
</svg>
